<?xml version="1.0" encoding="UTF-8"?><svg id="a" xmlns="http://www.w3.org/2000/svg" viewBox="0 0 32 32"><path d="M11.22,26.48c-1.77-.51-3.28-1.25-4.55-2.2s-2.25-2.09-2.94-3.41c-.69-1.32-1.04-2.79-1.04-4.39,0-1.69,.36-3.22,1.09-4.59s1.77-2.55,3.11-3.54c1.35-.99,2.95-1.75,4.82-2.28,1.87-.54,3.95-.8,6.24-.8,1.72,0,3.28,.17,4.69,.51,1.4,.34,2.61,.83,3.62,1.46s1.79,1.39,2.33,2.27c.54,.88,.81,1.87,.81,2.95,0,.81-.16,1.48-.49,2.03s-.75,1-1.26,1.38c-.51,.37-1.06,.7-1.64,.97-.58,.27-1.13,.53-1.65,.78-.52,.25-.94,.52-1.27,.82s-.49,.67-.49,1.11,.1,.78,.3,1.06c.2,.28,.43,.55,.7,.8,.26,.26,.49,.55,.69,.9s.3,.78,.3,1.33c0,.72-.31,1.35-.94,1.89-.63,.54-1.51,.97-2.64,1.28-1.13,.31-2.44,.46-3.92,.46-2.16,0-4.12-.26-5.88-.77Zm7.04-3.61c.46-.27,.82-.63,1.09-1.08s.4-.96,.4-1.51-.13-1.07-.4-1.52c-.27-.45-.63-.82-1.09-1.09-.46-.27-.96-.41-1.51-.41s-1.06,.14-1.51,.41c-.46,.27-.82,.63-1.09,1.09-.27,.45-.41,.96-.41,1.52s.14,1.05,.41,1.51c.27,.45,.64,.81,1.09,1.08s.96,.4,1.51,.4,1.06-.13,1.51-.4Z" fill="#a8967d"/><path d="M28.6,7.88c-.54-.88-1.32-1.64-2.33-2.27-1.01-.63-2.22-1.12-3.62-1.46-1.4-.34-2.97-.51-4.69-.51-2.29,0-4.37,.27-6.24,.8-1.87,.53-3.48,1.3-4.82,2.28-1.35,.99-2.38,2.17-3.11,3.54-.73,1.37-1.09,2.9-1.09,4.59s.35,3.07,1.04,4.39c.69,1.32,1.67,2.46,2.94,3.41,1.27,.96,2.79,1.69,4.55,2.2,1.77,.51,3.73,.77,5.88,.77,1.48,0,2.79-.15,3.92-.46,1.13-.31,2.01-.73,2.64-1.28,.63-.54,.94-1.17,.94-1.89,0-.54-.1-.99-.3-1.33s-.43-.64-.69-.9c-.26-.25-.7,.72-.9,.44-.2-.28-.51-1.94-.33-2.39,.16-.42,.39-.72,.72-1.02,.33-.3,.75-.57,1.27-.82,.52-.25,1.07-.51,1.65-.78,.58-.27,1.13-.59,1.64-.97,.51-.37,.93-.83,1.26-1.38s.49-1.22,.49-2.03c0-1.09-.27-2.07-.81-2.95Zm-11.83,14.15c-1.05,0-1.9-.85-1.9-1.9s.85-1.9,1.9-1.9,1.9,.85,1.9,1.9-.85,1.9-1.9,1.9Z" fill="#ccb696"/><path d="M9.28,17.09c.31-.32,.46-.69,.46-1.11,0-.44-.15-.82-.45-1.12-.3-.3-.67-.45-1.11-.45s-.8,.15-1.11,.46-.46,.68-.46,1.11,.15,.79,.46,1.11c.31,.32,.68,.47,1.11,.47s.78-.16,1.09-.47Zm4.53-4.05c.41-.4,.61-.9,.61-1.49s-.21-1.06-.62-1.46-.91-.6-1.48-.6-1.1,.2-1.51,.6c-.41,.4-.62,.89-.62,1.47s.21,1.08,.62,1.49c.41,.41,.92,.61,1.51,.61s1.07-.2,1.48-.61Zm5.92-1.49c.32-.33,.48-.73,.48-1.21s-.16-.88-.48-1.21c-.32-.33-.72-.49-1.21-.49s-.87,.17-1.2,.51-.5,.74-.5,1.2,.17,.87,.5,1.2,.73,.5,1.2,.5,.89-.16,1.21-.49Zm4.73,1.03c.24-.25,.36-.56,.36-.92s-.12-.65-.36-.9c-.24-.25-.54-.38-.9-.38s-.66,.13-.92,.38c-.26,.26-.39,.56-.39,.9s.13,.66,.38,.91,.56,.38,.93,.38,.66-.13,.9-.38Z"/><path d="M17.96,5.26c1.72,0,3.28,.17,4.69,.51,1.4,.34,2.61,.83,3.62,1.46,1.01,.63,1.79,1.39,2.33,2.27,.54,.88,.81,1.87,.81,2.95,0,.81-.16,1.48-.49,2.03-.33,.54-.75,1-1.26,1.38-.51,.37-1.06,.7-1.64,.97-.58,.27-1.13,.53-1.65,.78-.52,.25-.94,.52-1.27,.82-.33,.3-.49,.67-.49,1.11s.1,.78,.3,1.06c.2,.28,.43,.55,.7,.8,.26,.26,.49,.55,.69,.9,.2,.34,.3,.78,.3,1.33,0,.72-.31,1.35-.94,1.89-.63,.54-1.51,.97-2.64,1.28-1.13,.31-2.44,.46-3.92,.46-2.16,0-4.12-.26-5.88-.77-1.77-.51-3.28-1.25-4.55-2.2-1.27-.96-2.25-2.09-2.94-3.41-.69-1.32-1.04-2.79-1.04-4.39,0-1.69,.36-3.22,1.09-4.59s1.77-2.55,3.11-3.54c1.35-.99,2.95-1.75,4.82-2.28,1.87-.54,3.95-.8,6.24-.8m-1.21,18.02c.55,0,1.06-.13,1.51-.4,.46-.27,.82-.63,1.09-1.08,.27-.45,.4-.96,.4-1.51s-.13-1.07-.4-1.52c-.27-.45-.63-.82-1.09-1.09-.46-.27-.96-.41-1.51-.41s-1.06,.14-1.51,.41c-.46,.27-.82,.63-1.09,1.09-.27,.45-.41,.96-.41,1.52s.14,1.05,.41,1.51c.27,.45,.64,.81,1.09,1.08s.96,.4,1.51,.4m1.21-19.92c-2.46,0-4.73,.3-6.76,.88-2.08,.59-3.9,1.46-5.43,2.58-1.57,1.15-2.81,2.56-3.67,4.18-.87,1.64-1.32,3.49-1.32,5.48s.42,3.68,1.26,5.27c.82,1.57,1.99,2.93,3.48,4.05,1.45,1.09,3.18,1.93,5.16,2.51,1.93,.56,4.09,.85,6.42,.85,1.65,0,3.14-.18,4.42-.53,1.4-.38,2.54-.95,3.38-1.68,1.32-1.14,1.59-2.44,1.59-3.33s-.19-1.65-.55-2.28c-.28-.49-.63-.93-1.01-1.31-.12-.12-.24-.24-.34-.37,.14-.1,.33-.21,.59-.33,.52-.25,1.06-.5,1.64-.77,.69-.32,1.34-.71,1.95-1.16,.71-.52,1.3-1.17,1.76-1.93,.51-.84,.77-1.86,.77-3.01,0-1.44-.37-2.77-1.09-3.95-.69-1.13-1.68-2.1-2.94-2.89-1.18-.74-2.59-1.31-4.18-1.7-1.54-.38-3.27-.57-5.14-.57h0Zm-1.21,18.02c-.21,0-.39-.04-.55-.14-.18-.11-.32-.24-.42-.42-.09-.15-.13-.32-.13-.53s.04-.39,.14-.54c.11-.18,.25-.32,.43-.43,.16-.1,.33-.14,.54-.14s.38,.04,.54,.14c.18,.11,.32,.24,.42,.42,.09,.16,.14,.33,.14,.55s-.04,.38-.14,.54c-.1,.17-.23,.3-.41,.41-.16,.1-.34,.14-.55,.14h0Z"/></svg>