<?xml version="1.0" encoding="UTF-8"?><svg id="a" xmlns="http://www.w3.org/2000/svg" viewBox="0 0 1340 1060"><path d="M749.47,103.42l-12.65-15.45c-.66-.8-1.76-1.09-2.72-.71l-18.62,7.26c-.96,.38-1.57,1.32-1.52,2.36l1.15,19.95c.06,1.04,.78,1.91,1.79,2.18l19.32,5.07c1,.26,2.06-.15,2.62-1.02l10.8-16.82c.57-.88,.5-2.01-.16-2.82h0Z"/><path d="M312.26,676.62l16.55-3.53c.56-.12,1.1,.24,1.22,.79h0c.05,.22,.02,.45-.07,.65l-7.26,15.29c-.15,.31-.14,.67,.04,.97l8.47,14.65c.28,.49,.12,1.12-.37,1.4h0c-.2,.11-.42,.16-.65,.13l-16.79-2.19c-.33-.05-.67,.07-.9,.32l-11.3,12.59c-.37,.43-1.02,.47-1.45,.1-.17-.16-.28-.37-.32-.6l-3.11-16.63c-.06-.33-.28-.61-.59-.75l-15.48-6.87c-.52-.23-.76-.83-.54-1.36h0c.09-.21,.25-.38,.45-.49l14.85-8.09c.3-.16,.5-.46,.53-.8l1.76-16.83c.05-.56,.56-.98,1.12-.92,.23,.02,.45,.12,.61,.28l12.29,11.62c.25,.25,.6,.35,.95,.27h0Z"/><path d="M633.18,307.07l10.05-3.7c.33-.13,.71,.04,.83,.37h0c.05,.14,.05,.29,0,.43l-3.17,10.23c-.06,.2-.02,.42,.11,.59l6.63,8.41c.22,.29,.17,.7-.12,.92h0c-.11,.08-.25,.13-.39,.14l-10.71,.14c-.21,0-.41,.11-.53,.29l-5.96,8.9c-.2,.3-.6,.38-.9,.18-.11-.08-.2-.2-.25-.33l-3.45-10.14c-.07-.2-.24-.36-.44-.41l-10.31-2.91c-.35-.08-.56-.44-.48-.79h0c.04-.16,.13-.28,.25-.36l8.58-6.41c.17-.13,.27-.33,.26-.55l-.41-10.7c-.02-.36,.26-.66,.62-.68h0c.15,0,.29,.04,.41,.12l8.75,6.18c.18,.13,.42,.16,.63,.08h0Z"/><path d="M959,1010.23c-.14-1.49-.36-2.97-.67-4.43-.16-.9-.58-1.73-1.2-2.4-.73-.63-1.61-1.06-2.55-1.27-1.15-.3-2.75-.65-4.8-1.04-.97-.18-1.47-.73-1.5-1.65-.04-.43,.12-.85,.42-1.15,.3-.3,.69-.5,1.11-.54,1.58-.14,3.16-.36,4.72-.69,.92-.16,1.77-.59,2.46-1.23,.61-.72,1.02-1.6,1.17-2.54,.24-1.12,.52-2.67,.82-4.64,.15-1,.7-1.5,1.65-1.5,1.02,0,1.6,.51,1.69,1.54,.12,1.47,.31,2.93,.6,4.37,.15,.89,.57,1.71,1.2,2.36,.75,.62,1.64,1.05,2.59,1.25,1.16,.31,2.76,.66,4.8,1.07,1,.21,1.5,.77,1.5,1.69s-.56,1.47-1.69,1.65c-1.97,.33-3.49,.64-4.57,.92-.89,.18-1.71,.61-2.36,1.24-.58,.71-.96,1.54-1.13,2.44-.26,1.07-.58,2.57-.96,4.49-.2,1.02-.76,1.54-1.69,1.54-.97,0-1.51-.5-1.61-1.5h0Z"/><path d="M132.7,649.99c-.12-1.24-.31-2.48-.56-3.7-.13-.75-.48-1.44-.99-2-.61-.53-1.34-.89-2.13-1.06-.96-.26-2.3-.55-4-.87-.72-.05-1.27-.66-1.25-1.38-.03-.35,.1-.7,.35-.94,.25-.26,.58-.43,.94-.47,1.32-.11,2.63-.31,3.94-.58,.77-.13,1.48-.49,2.05-1.02,.51-.6,.85-1.33,.98-2.11,.2-.94,.43-2.23,.69-3.87,.14-.77,.88-1.27,1.65-1.13,.58,.11,1.04,.57,1.14,1.16,.1,1.23,.27,2.44,.51,3.65,.12,.74,.45,1.42,.97,1.96,.63,.51,1.37,.87,2.16,1.04,.97,.26,2.31,.56,4.02,.9,.73,.05,1.29,.68,1.25,1.41,0,.78-.47,1.23-1.41,1.38-1.64,.28-2.91,.54-3.81,.77-.74,.15-1.42,.51-1.97,1.04-.48,.58-.81,1.29-.94,2.03-.21,.9-.47,2.14-.8,3.77-.17,.85-.64,1.28-1.41,1.28-.68,.07-1.28-.43-1.35-1.11,0-.05,0-.1,0-.15h0Z"/><path d="M347.68,391.75c-.12-1.24-.31-2.47-.56-3.69-.13-.74-.48-1.44-.99-2-.61-.53-1.34-.89-2.13-1.06-.94-.26-2.28-.55-4-.87-.72-.05-1.27-.66-1.24-1.38-.03-.35,.1-.69,.35-.94,.25-.26,.58-.43,.94-.47,1.32-.11,2.64-.3,3.94-.57,.77-.14,1.48-.49,2.05-1.02,.51-.6,.85-1.33,.98-2.11,.2-.94,.43-2.23,.69-3.87,.01-.71,.6-1.27,1.31-1.25h.07c.69-.08,1.33,.41,1.41,1.1h0c0,.07,0,.12,0,.18,.1,1.23,.27,2.44,.51,3.65,.12,.74,.47,1.43,.99,1.97,.63,.51,1.37,.87,2.16,1.04,.97,.26,2.31,.56,4.02,.9,.83,.17,1.25,.64,1.25,1.41s-.47,1.23-1.41,1.38c-1.64,.28-2.92,.54-3.81,.77-.74,.15-1.43,.51-1.97,1.04-.48,.59-.8,1.29-.94,2.03-.22,.9-.47,2.14-.8,3.75-.17,.85-.64,1.28-1.41,1.28-.68,.08-1.3-.41-1.38-1.08,0-.05,0-.11,0-.16h0Z"/><path d="M137.63,101.97c-.12-1.24-.31-2.48-.56-3.7-.13-.74-.48-1.44-.99-2-.61-.53-1.34-.89-2.13-1.06-.94-.25-2.3-.55-4-.86-.72-.05-1.27-.66-1.25-1.38-.02-.35,.1-.69,.35-.94,.25-.26,.58-.43,.94-.47,1.33-.1,2.65-.28,3.95-.54,.77-.14,1.48-.49,2.05-1.03,.51-.6,.85-1.33,.98-2.11,.2-.94,.43-2.23,.69-3.87,.01-.71,.6-1.27,1.31-1.25h.07c.69-.08,1.33,.41,1.41,1.1h0v.18c.1,1.23,.27,2.44,.51,3.65,.12,.72,.46,1.39,.96,1.92,.63,.51,1.37,.87,2.16,1.04,.97,.25,2.31,.55,4.02,.9,.73,.05,1.29,.68,1.25,1.41,0,.76-.47,1.23-1.41,1.38-1.64,.27-2.91,.53-3.81,.77-.74,.15-1.42,.51-1.97,1.04-.48,.59-.8,1.29-.94,2.03-.21,.9-.47,2.14-.8,3.77-.17,.85-.64,1.28-1.41,1.28-.68,.07-1.29-.42-1.36-1.11v-.15h0Z"/><path d="M952.64,142c-.11-1.24-.3-2.47-.55-3.69-.13-.75-.48-1.44-.99-2-.61-.53-1.34-.89-2.13-1.06-.96-.25-2.3-.54-4-.86-.72-.05-1.27-.66-1.25-1.38-.02-.35,.11-.69,.35-.94,.25-.26,.58-.43,.94-.47,1.32-.11,2.63-.31,3.94-.57,.77-.14,1.48-.49,2.05-1.02,.51-.6,.85-1.33,.98-2.11,.2-.94,.43-2.23,.69-3.87,.14-.77,.88-1.27,1.65-1.13,.58,.11,1.04,.57,1.14,1.16,.1,1.23,.27,2.44,.51,3.65,.12,.74,.47,1.43,.99,1.97,.62,.52,1.37,.88,2.16,1.04,.97,.25,2.31,.56,4.02,.9,.83,.17,1.25,.64,1.25,1.41s-.47,1.23-1.41,1.38c-1.64,.28-2.91,.54-3.81,.77-.74,.15-1.42,.51-1.97,1.04-.48,.59-.8,1.29-.94,2.03-.21,.9-.47,2.15-.8,3.77-.17,.85-.64,1.28-1.41,1.28-.68,.1-1.31-.36-1.41-1.04h0c0-.08,0-.16,0-.23h0Z"/><path d="M990.16,549.6c-.41-.41-.84-.88-1.27-1.38-2.07-2.41-3.9-5.01-5.47-7.78-1.37-2.38-2.38-4.95-2.99-7.63-.54-2.3-.49-4.69,.14-6.97,.41-1.51,1.1-2.94,2.05-4.19,.84-1.12,1.9-2.06,3.11-2.77,1.15-.67,2.41-1.1,3.72-1.28,1.3-.17,2.62-.07,3.88,.29,1.47,.36,2.78,1.19,3.74,2.36,.88,1.1,1.48,2.39,1.76,3.77,.97-1.01,2.16-1.79,3.48-2.26,1.43-.48,2.97-.49,4.4-.03,1.27,.35,2.45,.97,3.46,1.81,1.02,.84,1.87,1.88,2.49,3.04,.66,1.23,1.06,2.59,1.18,3.99,.14,1.56-.02,3.13-.47,4.64-.67,2.26-1.9,4.33-3.56,6-1.93,1.95-4.14,3.6-6.56,4.9-2.79,1.52-5.72,2.77-8.75,3.72-.63,.2-1.23,.37-1.81,.5-.45,.13-.93,.15-1.39,.05-.45-.16-.84-.44-1.15-.81h0Z"/><path d="M542.77,739.73c-.43-.21-.88-.47-1.35-.72-2.24-1.3-4.35-2.82-6.3-4.52-1.7-1.47-3.16-3.18-4.35-5.08-1.03-1.63-1.64-3.49-1.77-5.41-.08-1.28,.08-2.55,.47-3.77,.35-1.09,.91-2.1,1.65-2.97,.7-.82,1.56-1.49,2.53-1.98,.96-.48,2-.76,3.07-.82,1.23-.11,2.46,.17,3.51,.81,.97,.61,1.77,1.44,2.36,2.42,.48-1.04,1.19-1.96,2.08-2.67,.97-.75,2.16-1.17,3.38-1.2,1.07-.07,2.14,.09,3.15,.47,1.01,.37,1.95,.94,2.74,1.68,.84,.78,1.51,1.72,1.98,2.76,.52,1.17,.82,2.42,.88,3.7,.09,1.92-.3,3.84-1.14,5.58-.96,2.03-2.22,3.89-3.74,5.54-1.74,1.92-3.67,3.67-5.74,5.22-.43,.33-.85,.61-1.26,.87-.31,.22-.67,.37-1.05,.41-.39,0-.77-.11-1.11-.31h0Z"/><path d="M1244.81,941.41c-.47-.36-.94-.75-1.45-1.19-2.38-2.11-4.54-4.44-6.47-6.97-1.68-2.17-3.03-4.58-3.99-7.15-.84-2.21-1.12-4.59-.81-6.93,.2-1.56,.7-3.06,1.46-4.43,.68-1.22,1.6-2.3,2.71-3.16,1.04-.82,2.24-1.42,3.52-1.77,1.26-.35,2.59-.43,3.88-.24,1.5,.16,2.91,.8,4.02,1.82,1.01,.97,1.78,2.16,2.25,3.48,.82-1.14,1.9-2.06,3.15-2.71,1.35-.67,2.87-.89,4.35-.63,1.3,.18,2.55,.63,3.67,1.32,1.13,.7,2.11,1.61,2.88,2.68,.82,1.13,1.4,2.41,1.71,3.77,.35,1.53,.4,3.11,.16,4.66-.36,2.33-1.29,4.54-2.71,6.42-1.65,2.2-3.61,4.13-5.83,5.75-2.56,1.88-5.29,3.52-8.16,4.88-.6,.28-1.17,.53-1.72,.74-.86,.46-1.91,.31-2.61-.37v.02h0Z"/><path d="M1045.04,770.09c.67,.09,1.36,.09,2.03,0,.6-.15,1.23-.15,1.83,0,.32,.07,.59,.28,.74,.57,.13,.3,.14,.64,.04,.94-.08,.25-.19,.49-.32,.71-.16,.28-.35,.53-.56,.77-.99,1.16-2.14,2.17-3.43,2.99-2.56,1.64-5.54,2.5-8.58,2.49-1.55,0-3.08-.24-4.56-.69-2.05-.59-3.97-1.58-5.66-2.9-3.2-2.55-5.2-6.3-5.56-10.37-.19-2.15,.05-4.31,.69-6.37,.6-2,1.59-3.87,2.93-5.48,1.31-1.61,2.93-2.95,4.75-3.95,1.85-1,3.88-1.61,5.97-1.79,.27-.02,.53-.02,.8,0,.23,.01,.45,.05,.67,.12,.36,.09,.67,.33,.84,.66,.16,.31,.18,.68,.07,1.01-.08,.25-.19,.49-.34,.71-.17,.25-.37,.49-.58,.71-.35,.35-.66,.74-.92,1.17-.32,.52-.6,1.06-.84,1.62-.26,.59-.49,1.2-.67,1.82-.51,1.59-.72,3.27-.62,4.94,.1,1.49,.53,2.94,1.25,4.24,.74,1.32,1.76,2.46,2.98,3.35,2.09,1.49,4.52,2.43,7.07,2.74h0Z"/><path d="M420.08,182.8c.67,.09,1.36,.09,2.03,0,.6-.15,1.23-.15,1.83,0,.32,.08,.58,.29,.72,.58,.14,.31,.15,.65,.04,.97-.08,.25-.19,.49-.32,.71-.16,.28-.35,.53-.56,.77-.99,1.16-2.14,2.17-3.43,2.99-3.91,2.5-8.71,3.16-13.14,1.81-2.07-.59-4-1.58-5.69-2.91-3.2-2.55-5.2-6.3-5.56-10.37-.19-2.15,.05-4.31,.69-6.37,.6-2.01,1.61-3.89,2.95-5.5,1.33-1.6,2.96-2.94,4.78-3.93,1.85-1,3.88-1.61,5.97-1.79,.27-.02,.53-.02,.8,0,.23,.01,.45,.05,.67,.12,.36,.09,.67,.33,.84,.66,.16,.31,.18,.68,.07,1.01-.08,.25-.19,.49-.34,.71-.17,.25-.37,.49-.58,.71-.35,.36-.66,.76-.92,1.19-.32,.52-.6,1.06-.84,1.62-.26,.59-.49,1.2-.67,1.82-.51,1.59-.72,3.27-.62,4.94,.1,1.49,.53,2.94,1.25,4.24,.74,1.32,1.76,2.46,2.98,3.35,1.4,1,2.96,1.76,4.61,2.24,.8,.22,1.61,.37,2.44,.46Z"/><path d="M1209.52,671.75c-1.64-.87-3.02-2.17-3.97-3.77-.98-1.66-1.48-3.56-1.45-5.49,0-1.43,.28-2.84,.85-4.15,.57-1.28,1.4-2.42,2.44-3.36,1.11-.99,2.41-1.75,3.82-2.22,.3-1.98,.94-3.9,1.91-5.66,1.86-3.35,4.88-5.92,8.48-7.22,4.68-1.63,9.82-1.24,14.2,1.07,2.45,1.43,4.43,3.55,5.7,6.09,1.8-.02,3.59,.32,5.26,1,3.16,1.3,5.67,3.81,6.96,6.98,.66,1.64,.99,3.39,.98,5.15,.01,1.74-.32,3.48-.99,5.09-.65,1.54-1.6,2.94-2.79,4.11-1.2,1.18-2.62,2.11-4.18,2.74-1.64,.67-3.41,1-5.18,.99h-26.27c-2.01,.04-4-.42-5.78-1.35h0Z"/><g><path d="M1180.7,104.55c-4.1,.08-7.36,3.47-7.28,7.57s3.47,7.36,7.57,7.28,7.36-3.47,7.28-7.57-3.47-7.36-7.57-7.28Z"/><path d="M1204.04,80.06c-11.66,.23-21.12,9.51-21.57,21.17,5.94,.88,10.03,6.41,9.15,12.35-.26,1.72-.92,3.36-1.95,4.77,8.99,8.18,22.91,7.52,31.09-1.47,8.18-8.99,7.52-22.91-1.47-31.09-4.16-3.78-9.62-5.83-15.24-5.72h-.02Z"/><circle cx="1232.49" cy="88.39" r="2.86" transform="translate(-1.49 23.97) rotate(-1.11)"/></g><path d="M1221.26,360.48c-3.13,2.5-7.81,3.6-12.64,2.58-.89-.18-1.76-.44-2.62-.76-.98-.37-1.47-1.46-1.1-2.43,.16-.44,.49-.8,.91-1.02,5.28-2.68,7.39-9.13,4.71-14.41-1.47-2.9-4.18-4.97-7.36-5.64-4.63-.98-9.39,2.2-11.58,5.66l-3.38-2.36c-.64-.45-1.52-.3-1.97,.34-.11,.16-.19,.35-.23,.54-.27,1.38,.01,2.8,.79,3.97-.78-.04-1.44,.56-1.48,1.34v.12c.05,1.41,1.81,2.83,4.19,3.33,.41,.08,.82,.14,1.23,.16,.24,.54,.52,1.07,.85,1.56,.17,.27,.19,.61,.05,.9-.14,.29-.41,.49-.73,.53-10.7,1.41-18.38,19.64,6.19,24.81,9.47,1.99,23.09,.39,25.51-11.04,.59-2.8,.12-5.72-1.33-8.19h0Z" fill-rule="evenodd"/><rect width="1340" height="1060" fill="none"/><g><path d="M674.67,551.37c-14.04,5.37-19.13,3.99-20.23,5.64-.96,1.65,12.66,18.85,12.66,18.85,.27,.41,.82,.55,1.38,.41l27.38-10.46c.41-.14,.82-.69,.69-1.24,0,0-1.51-21.05-2.62-21.74-1.1-.69-5.23,3.17-19.26,8.53h0Z"/><path d="M646.32,550.4c.14,.27,.55,6.88,27.52-3.58,26.97-10.46,21.05-14.72,21.05-15.14-1.51-3.85-5.78-5.78-9.63-4.27l-.69,.27c.27-1.24,.27-2.62-.27-3.99-1.24-3.3-4.95-4.95-8.26-3.85-3.85-8.26-16.37-10.32-16.92-10.32-.55-.14-.96,.14-1.24,.55-.27,.41-.41,.96-.14,1.38,.96,2.2-.27,3.99-2.34,6.6-2.2,2.89-4.82,6.33-2.75,10.87h-.14c-3.44,1.24-5.09,5.09-3.71,8.39,.55,1.38,1.38,2.34,2.48,3.17l-.69,.27c-3.71,1.51-5.64,5.78-4.27,9.63h0Z"/></g><path d="M993.86,308.81c-5.6,20.15-26.3,27.47-45.09,19.61-4.61-1.63-6.06,0-4.97,4.34,16.63,35.96,72.75,1.26,54.94-24.76,.72-3.16,.82-6.32,1.45-9.49-1.63-3.88-6.87-2.62-6.5-.63l.18,10.93h0Z" fill-rule="evenodd"/><path d="M145.46,940.34c.91,.64,1.46,1.36,1.82,2.18,.18,.55,.45,1.09,.73,1.64,.45,.82,1.55,1,2.27,.36l6.91-6.09c1.36-1.18,1.46-3.28,.27-4.64l-6.18-6.91c-.64-.73-.45-1.82,.36-2.27,.55-.27,1.18-.64,1.82-.91,.82-.36,1.64-1,2.18-1.82,1-1.46,1.09-3.37,.27-4.91-1.55-3-5.27-3.55-7.64-1.46-.36,.36-.73,.73-1,1.18-.36,.55-.73,1.09-1.09,1.64-.55,.73-1.64,.82-2.37,.09l-6.18-6.91c-1.18-1.36-3.28-1.46-4.64-.27l-6.91,6.18c-.73,.64-1.82,.45-2.27-.36-.27-.55-.64-1.18-.91-1.82-.36-.82-1-1.64-1.82-2.18-1.46-1-3.37-1.09-4.91-.27-3,1.55-3.55,5.27-1.46,7.64,.36,.36,.73,.73,1.18,1,.55,.36,1.09,.73,1.64,1.09,.73,.55,.82,1.64,.09,2.37l-6.91,6.18c-1.36,1.18-1.46,3.28-.27,4.64l19.73,22.28c1.18,1.36,3.28,1.46,4.64,.27l6.91-6.09c.73-.64,.64-1.73-.09-2.37-.45-.36-1-.64-1.55-.91-.45-.27-.82-.55-1.18-1-2.09-2.37-1.55-6.09,1.46-7.64,1.82-1,3.64-.91,5.09,.09h0Z"/><g><path d="M103,316.1c-3,1.6-5.4,4.3-6.8,7.4-1.4,3.4-1.5,7.5,.6,12l11.4,25.2,27.1-12.3-11.3-25.1c-.6-1.5-1.5-2.8-2.7-3.9-.8-.7-1.9-.9-2.8-.4h0c-1.3,.7-2.8,.8-4.3,.4-1.3-.4-2.3-1.3-3-2.4-2.5,1.8-6,1.4-8.2-.9Z" fill-rule="evenodd"/><path d="M125.7,354.7l-6.3,2.8,8.2,18c.3,.9,1.1,1.6,2,1.9,1.7,.5,3.6-.4,4.4-2,.4-.9,.4-1.9-.1-2.7l-8.2-18Z" fill-rule="evenodd"/></g><path d="M537.26,943.75c.71-.39,1.47-.16,1.88,.48,.7,1.18,.5,2.1,.46,2.76-.07,.5-.11,.64,.13,1.09h0c.13,.34,.33,.4,.79,.61,.6,.25,1.46,.65,2.09,1.82,.63,1.16,.5,2.1,.39,2.74-.07,.5-.11,.64,.13,1.09,.19,.36,.38,.49,.84,.7,.6,.25,1.46,.65,2.09,1.82s.5,2.1,.39,2.74c-.07,.5-.11,.64,.13,1.09h0c.19,.36,.38,.49,.84,.7,.6,.25,1.46,.65,2.07,1.88,.34,.62,.03,1.43-.6,1.77-3.57,1.94-7.4,2.46-10.74,1.85-1.7-.35-3.1-1.44-3.92-2.96l-3.89-7.14c-.83-1.52-.98-3.29-.35-4.9,1.18-3.25,3.79-6.23,7.27-8.12Zm-35.42,37.73l-3.94-7.23c-.83-1.52-2.18-2.52-3.87-2.87-3.41-.63-7.24-.11-10.81,1.83-.62,.34-.94,1.15-.6,1.77,.61,1.23,1.49,1.56,2.07,1.88,.46,.21,.6,.25,.84,.7h0c.19,.36,.2,.58,.13,1.09-.11,.64-.24,1.58,.39,2.74,.63,1.16,1.49,1.56,2.09,1.82,.46,.21,.6,.25,.84,.7,.19,.36,.2,.58,.13,1.09-.11,.64-.24,1.58,.39,2.74,.63,1.16,1.49,1.56,2.09,1.82,.46,.21,.6,.25,.84,.7h0c.19,.36,.2,.58,.13,1.09-.11,.64-.24,1.58,.46,2.76,.34,.62,1.19,.8,1.81,.46,3.57-1.94,6.08-4.87,7.41-8.08,.53-1.79,.38-3.56-.4-4.99Zm-2.76-10.71l6.27,11.52c.44,.8,1.21,1.48,2.18,1.77,4.62,1.36,10.35,.73,15.53-2.09s8.82-7.29,10.18-11.91c.26-.9,.12-1.91-.3-2.79l-6.27-11.52c-.44-.8-1.21-1.48-2.18-1.77-4.62-1.36-10.35-.73-15.53,2.09-5.18,2.82-8.82,7.29-10.18,11.91-.28,.97-.2,1.96,.3,2.79Z"/><path d="M875.4,824.4c-.23-2.43-.78-4.82-1.64-7.11-.9-2.44-2.16-4.72-3.74-6.78-1.71-2.21-3.8-4.11-6.17-5.59-1.57-1.01-3.26-1.81-5.04-2.41l.4-2.03c.23-1.03,.03-2.11-.56-2.98-.58-.88-1.49-1.48-2.53-1.66-2.08-.46-4.14,.85-4.6,2.93-.01,.06-.03,.13-.04,.19l-.4,2.03c-1.85-.12-3.72-.02-5.55,.3-2.76,.46-5.42,1.4-7.85,2.79-2.27,1.3-4.32,2.94-6.09,4.86-1.65,1.79-3.06,3.79-4.2,5.95-1.01,1.89-1.75,3.91-2.2,6.01-.21,.94-.02,1.92,.51,2.73,.49,.8,1.29,1.35,2.2,1.52,.79,.17,1.6,.12,2.36-.14,.97-.36,1.91-.8,2.81-1.32,.45-.29,.94-.49,1.46-.61,.52-.11,1.06-.11,1.58,0,.56,.12,1.07,.4,1.48,.8,.59,.58,1.1,1.23,1.54,1.93,.33,.53,.74,1.01,1.22,1.41,.45,.37,.99,.61,1.56,.72,.55,.11,1.12,.08,1.65-.08,.59-.18,1.16-.46,1.67-.81,.23-.14,.47-.27,.71-.39l-3.09,15.56c-.08,.44-.33,.83-.69,1.09-.8,.56-1.9,.37-2.46-.43-.02-.02-.03-.04-.04-.07-.24-.42-.31-.91-.2-1.38,.23-1.02,.04-2.09-.53-2.97-.55-.88-1.46-1.49-2.48-1.66-2.13-.48-4.25,.85-4.74,2.99-.02,.08-.03,.15-.04,.23-.34,1.59-.21,3.25,.37,4.77,.58,1.51,1.55,2.84,2.8,3.86,1.33,1.09,2.91,1.82,4.6,2.13,1.64,.36,3.35,.35,4.99-.01,1.5-.33,2.87-1.09,3.95-2.18,1.15-1.24,1.91-2.79,2.18-4.45l3.19-16.06c.18,.21,.35,.42,.5,.65,.38,.52,.81,1.02,1.27,1.47,.4,.38,.9,.64,1.43,.74,.56,.12,1.15,.1,1.7-.07,.61-.19,1.18-.46,1.72-.8,.69-.47,1.42-.86,2.18-1.18,.53-.23,1.11-.3,1.67-.21,.51,.1,.99,.3,1.42,.6,.44,.31,.82,.7,1.13,1.15,.59,.83,1.28,1.6,2.04,2.28,.61,.51,1.35,.86,2.13,1.01,.92,.19,1.87-.01,2.63-.57,.79-.54,1.33-1.38,1.5-2.32,.39-2.11,.49-4.27,.28-6.41Z"/></svg>