<?xml version="1.0" encoding="UTF-8"?><svg xmlns="http://www.w3.org/2000/svg" viewBox="0 0 189.7 85.35"><g id="a"><rect x="73.19" y="38.37" width="20.72" height="11.12"/></g><g id="b"><g><path d="M69.74,57.35c-.64,0-1.29-.06-1.93-.19-.7-.14-1.31-.34-1.84-.6-.35-.16-.66-.41-.91-.72-.14,.31-.32,.54-.49,.7-.5,.5-1.18,.76-1.96,.76-.99,0-1.6-.41-1.95-.76-.35-.35-.76-.97-.76-1.98v-.3c-.28,.49-.63,.93-1.05,1.31-1.16,1.07-2.75,1.61-4.74,1.61h-2.58c-1.68,0-2.76-1.08-2.76-2.75v-6.77c0-1.67,1.08-2.75,2.76-2.75h2.41c.06,0,.11,0,.17,0,1.98,0,3.57,.54,4.74,1.6,.42,.39,.77,.82,1.05,1.31v-.28c0-1.01,.41-1.63,.76-1.98,.35-.35,.97-.76,1.95-.76s1.6,.41,1.95,.76c.29,.29,.62,.77,.73,1.5,.05-.07,.09-.14,.14-.22,.47-.67,1.14-1.2,2-1.57,.78-.33,1.64-.49,2.63-.49,.57,0,1.12,.06,1.7,.18,.63,.14,1.19,.35,1.67,.62,.74,.4,1.05,1.01,1.18,1.44,.06,.21,.1,.43,.1,.64,.53-.92,1.29-1.64,2.24-2.14,.94-.51,2.07-.76,3.34-.76,.5,0,1.01,.06,1.57,.17,.57,.12,1.1,.31,1.56,.56,.5,.27,.89,.67,1.13,1.14,.06,.11,.11,.23,.16,.36,.47-.59,1.04-1.08,1.71-1.45,.93-.51,2.01-.77,3.19-.77s2.26,.26,3.19,.78c.96,.52,1.71,1.28,2.24,2.25v-.16c.01-1,.43-1.62,.77-1.97s.97-.76,1.97-.76h3.23c1.43,0,2.59,.39,3.44,1.15,.29,.27,.54,.57,.74,.9,.26-1.27,1.26-2.05,2.69-2.05h2.41c.06,0,.11,0,.17,0,1.98,0,3.57,.54,4.74,1.6,1.21,1.1,1.82,2.62,1.82,4.53s-.61,3.44-1.82,4.54c-1.16,1.07-2.75,1.61-4.74,1.61h-2.58c-1.04,0-1.86-.42-2.33-1.14-.14,.26-.32,.49-.55,.68-.47,.39-1.05,.58-1.74,.58s-1.21-.15-1.67-.45c-.39-.24-.76-.65-1.05-1.19l-.16-.29c-.11,.46-.33,.85-.66,1.18-.5,.5-1.17,.76-1.96,.76-.98,0-1.6-.41-1.95-.76s-.76-.97-.76-1.97v-.32c-.53,.97-1.29,1.73-2.24,2.27-.94,.53-2.01,.79-3.21,.79s-2.27-.27-3.21-.79c-.66-.37-1.22-.85-1.67-1.42-.03,.08-.06,.16-.09,.23-.21,.5-.61,.92-1.14,1.19-.42,.24-.91,.42-1.5,.57-.56,.13-1.13,.2-1.71,.2-1.25,0-2.38-.26-3.34-.76-.89-.47-1.6-1.13-2.13-1.97-.11,.26-.25,.5-.42,.74-.5,.68-1.17,1.2-2.01,1.55-.78,.33-1.65,.49-2.67,.49Zm35.4-4.42v-1.15c-.04,.06-.08,.12-.13,.18-.08,.11-.16,.21-.25,.3,.01,.02,.38,.67,.38,.67Zm-39.82-.51c.13-.13,.28-.24,.43-.33-.16-.17-.31-.34-.43-.52v.84Zm24.31-2.63c-.32,0-.4,.09-.46,.17-.2,.25-.24,.73-.24,1.08s.04,.83,.25,1.1c.05,.06,.13,.16,.45,.16s.38-.09,.44-.16c.22-.27,.26-.75,.26-1.1,0-.51-.09-.89-.24-1.08-.06-.07-.13-.17-.46-.17Zm-9.23,.08c-.21,0-.57,.02-.72,.19-.2,.22-.24,.66-.24,.98,0,.47,.08,.82,.24,.99,.14,.16,.47,.19,.72,.19,.12,0,.26-.02,.4-.05,.17-.04,.32-.09,.47-.16,.43-.18,.79-.26,1.15-.26,.19,0,.38,.02,.56,.07,.18,.05,.34,.11,.49,.18-.04-.31-.06-.63-.06-.96s.02-.63,.05-.93c-.13,.07-.26,.12-.4,.16-.25,.07-.44,.09-.63,.09-.36,0-.73-.09-1.09-.26-.33-.16-.63-.23-.94-.23Zm30.17,2.34c.52-.03,.69-.17,.74-.21,.01-.01,.03-.03,.05-.04,.07-.1,.18-.35,.18-.92,0-.45-.08-.8-.22-.94-.12-.12-.39-.2-.75-.23v2.33Zm-56.37,0c.52-.03,.7-.17,.74-.21,.01-.01,.03-.03,.04-.04,.07-.1,.19-.35,.19-.92,0-.45-.08-.8-.22-.94-.12-.12-.39-.2-.75-.23v2.33Zm19.48-2.42c.09,.07,.18,.14,.26,.22,.02-.17,.05-.35,.09-.51-.11,.11-.22,.21-.35,.3Z" fill="#abfdd7"/><path d="M80.3,46.26c.41,0,.83,.05,1.26,.14s.82,.23,1.15,.41c.24,.13,.41,.3,.51,.5,.11,.2,.14,.41,.11,.62-.03,.21-.1,.4-.23,.57s-.29,.28-.48,.34c-.06,.02-.12,.02-.18,.02-.14,0-.29-.04-.45-.11-.52-.25-1.05-.38-1.59-.38-.81,0-1.43,.23-1.84,.69-.41,.46-.62,1.11-.62,1.98s.21,1.53,.62,1.99c.41,.46,1.02,.69,1.84,.69,.23,0,.48-.03,.74-.09,.27-.06,.53-.15,.78-.27,.18-.08,.34-.11,.5-.11,.07,0,.14,0,.2,.02,.21,.06,.38,.16,.51,.32v-.02c.13,.16,.21,.34,.24,.55,.03,.2,0,.41-.09,.61-.09,.21-.25,.37-.49,.49-.31,.18-.69,.32-1.14,.43-.45,.11-.9,.16-1.35,.16-1.02,0-1.9-.2-2.64-.59-.74-.39-1.3-.95-1.69-1.67-.39-.71-.59-1.55-.59-2.52s.2-1.81,.59-2.52,.95-1.27,1.69-1.66c.73-.39,1.61-.59,2.64-.59m9.32,0c.94,0,1.76,.2,2.47,.59,.71,.39,1.26,.95,1.65,1.66,.39,.72,.59,1.57,.59,2.52s-.2,1.79-.59,2.51c-.39,.72-.94,1.28-1.65,1.68-.71,.4-1.53,.6-2.47,.6s-1.76-.2-2.47-.6c-.71-.4-1.26-.96-1.65-1.68-.39-.72-.59-1.54-.59-2.51s.2-1.81,.59-2.52,.94-1.27,1.65-1.66c.71-.39,1.53-.59,2.47-.59m.01,7.53c.68,0,1.22-.24,1.61-.73,.39-.49,.59-1.16,.59-2.03s-.19-1.55-.58-2.03c-.39-.48-.92-.72-1.62-.72s-1.23,.24-1.62,.72c-.39,.49-.58,1.16-.58,2.03s.19,1.54,.58,2.03c.39,.49,.94,.73,1.62,.73m-19.56-7.52c.46,0,.92,.05,1.39,.15,.47,.1,.88,.25,1.22,.45,.26,.14,.43,.33,.5,.57s.06,.47-.03,.7c-.09,.23-.25,.39-.47,.5-.1,.05-.21,.07-.33,.07-.16,0-.33-.04-.52-.12-.27-.12-.55-.2-.87-.26-.32-.06-.62-.09-.92-.09-.49,0-.87,.09-1.13,.26-.26,.17-.39,.39-.39,.66,0,.19,.08,.35,.24,.47,.16,.13,.44,.23,.84,.32l1.53,.33v.02c1.7,.36,2.55,1.21,2.55,2.55,0,.61-.17,1.13-.49,1.58-.33,.45-.78,.79-1.37,1.04-.59,.25-1.28,.37-2.08,.37-.53,0-1.08-.05-1.65-.16-.56-.11-1.05-.27-1.45-.47-.24-.11-.4-.27-.5-.46-.11-.19-.14-.39-.11-.6,.02-.2,.1-.39,.22-.55,.13-.16,.29-.27,.49-.33,.06-.02,.13-.02,.2-.02,.15,0,.31,.04,.48,.11,.33,.16,.71,.29,1.13,.37,.42,.08,.81,.12,1.18,.12,.58,0,.99-.08,1.22-.23,.23-.15,.35-.34,.35-.57,0-.21-.08-.37-.24-.49-.16-.13-.45-.23-.86-.32l-1.54-.33c-1.67-.36-2.5-1.23-2.5-2.62,0-.6,.16-1.13,.49-1.59,.32-.46,.78-.81,1.37-1.06,.59-.25,1.27-.37,2.05-.37m-7.46,.01c.38,0,.68,.11,.89,.32,.21,.21,.32,.52,.32,.92v7.03c0,.4-.1,.71-.31,.92s-.52,.32-.9,.32-.68-.11-.89-.32c-.21-.21-.32-.52-.32-.92v-7.03c0-.4,.11-.71,.32-.92,.21-.21,.5-.32,.89-.32m47.87,.11c1.6,0,2.84,.4,3.73,1.21,.89,.81,1.33,1.94,1.33,3.42s-.44,2.62-1.33,3.43c-.88,.81-2.13,1.22-3.73,1.22h-2.58c-.84,0-1.26-.42-1.26-1.25v-6.77c0-.83,.42-1.25,1.26-1.25h2.58m-1.41,7.31h1.26c.92,0,1.6-.22,2.04-.66h0c.44-.44,.66-1.12,.66-2.02s-.22-1.57-.67-2.01c-.45-.44-1.13-.66-2.04-.66h-1.26v5.35m-54.96-7.32c1.6,0,2.84,.4,3.73,1.21,.89,.81,1.33,1.94,1.33,3.42s-.44,2.62-1.33,3.43c-.88,.81-2.13,1.22-3.73,1.22h-2.58c-.84,0-1.26-.42-1.26-1.25v-6.77c0-.83,.42-1.25,1.26-1.25h2.58m-1.41,7.31h1.26c.92,0,1.6-.22,2.04-.66h0c.44-.44,.66-1.12,.66-2.02s-.22-1.57-.67-2.01c-.45-.44-1.13-.66-2.04-.66h-1.26v5.35m48.33-7.31c1.05,0,1.87,.26,2.44,.77,.57,.52,.86,1.23,.86,2.14,0,.69-.17,1.27-.52,1.74s-.85,.8-1.51,.98c.49,.13,.88,.47,1.18,1.01h0l.66,1.18c.14,.26,.2,.51,.19,.75,0,.24-.1,.44-.28,.59-.18,.15-.43,.23-.78,.23s-.63-.06-.84-.2c-.21-.13-.4-.35-.57-.66l-1.2-2.2c-.1-.19-.24-.33-.4-.4-.16-.07-.35-.11-.56-.11h-.72v2.35c0,.4-.1,.7-.31,.91s-.52,.32-.9,.32-.68-.11-.89-.32-.32-.52-.32-.91v-6.94c0-.4,.11-.7,.32-.91s.52-.32,.91-.32h3.23m-2.04,4.1h1.6c.95,0,1.43-.38,1.43-1.13s-.47-1.12-1.43-1.12h-1.6v2.25m-18.69-7.25c-1.52,0-2.88,.32-4.05,.94-.42,.22-.8,.47-1.16,.76-.27-.27-.58-.5-.93-.7-.61-.35-1.3-.61-2.07-.77-.67-.14-1.35-.22-2.01-.22-1.19,0-2.27,.2-3.22,.61-.43,.18-.82,.4-1.18,.65l-.04-.04c-.77-.77-1.84-1.2-3.01-1.2-1.5,0-2.46,.65-3.01,1.2-.13,.13-.24,.26-.35,.4-1.37-.99-3.09-1.49-5.14-1.49-.08,0-.17,0-.25,.01h-2.33c-2.51,0-4.26,1.75-4.26,4.25v6.77c0,2.5,1.75,4.25,4.26,4.25h2.58c2.04,0,3.76-.5,5.13-1.49,.11,.15,.23,.29,.36,.42,.77,.77,1.84,1.2,3.01,1.2,1.01,0,1.95-.32,2.68-.9l.04,.02c.64,.31,1.37,.55,2.17,.71,.75,.14,1.49,.22,2.23,.22,1.21,0,2.3-.2,3.25-.61,.75-.32,1.4-.74,1.95-1.26,.4,.34,.84,.64,1.32,.89,1.18,.62,2.54,.94,4.04,.94,.7,0,1.4-.08,2.06-.25,.71-.17,1.32-.41,1.86-.71,.26-.14,.5-.3,.72-.48,.23,.17,.48,.33,.73,.47,1.16,.65,2.49,.99,3.94,.99s2.78-.33,3.94-.99c.31-.18,.61-.37,.89-.59,.1,.12,.2,.24,.32,.36,.77,.77,1.84,1.2,3.01,1.2,1.02,0,1.97-.32,2.71-.92,.11,.08,.22,.16,.33,.23,.69,.45,1.52,.68,2.46,.68,1.07,0,1.85-.33,2.37-.68,.64,.36,1.4,.56,2.25,.56h2.58c2.37,0,4.31-.68,5.76-2.01,1.04-.95,2.3-2.71,2.3-5.64s-1.26-4.68-2.31-5.64c-1.45-1.32-3.39-1.99-5.75-1.99-.08,0-.17,0-.25,.01h-2.33c-1.21,0-2.24,.4-2.98,1.1-.84-.58-2.1-1.1-3.89-1.1h-3.23c-1.18,0-2.26,.43-3.03,1.2-.08,.08-.16,.17-.25,.27-.31-.24-.64-.46-.99-.65-1.16-.64-2.48-.96-3.91-.96s-2.75,.32-3.91,.96c-.27,.15-.53,.31-.77,.49-.24-.21-.5-.39-.79-.55-.58-.32-1.25-.56-1.96-.71-.65-.14-1.28-.2-1.87-.2h0Z"/></g></g><g id="c"><g><path d="M101.11,44.6c-1.74,0-3.13-.49-4.14-1.45-.58-.55-1-1.24-1.25-2.06-.07,.15-.14,.3-.22,.44-.53,.97-1.28,1.73-2.23,2.27-.93,.53-2.01,.79-3.21,.79s-2.27-.27-3.21-.79c-.96-.54-1.71-1.3-2.23-2.27-.52-.96-.77-2.01-.77-3.22s.26-2.3,.77-3.24c.53-.97,1.29-1.73,2.24-2.25,.94-.51,2.01-.78,3.19-.78s2.26,.26,3.19,.78c.92,.5,1.65,1.22,2.18,2.14v-.16c0-1,.41-1.63,.76-1.97,.34-.34,.96-.76,1.95-.76s1.61,.41,1.95,.76c.35,.35,.76,.97,.76,1.97v4.25c0,.31,.05,.47,.07,.53h0s.08,0,.17,0c.13,0,.18-.02,.19-.02h0s.05-.16,.05-.52v-4.26c0-.81,.25-1.47,.75-1.97,.35-.35,.97-.76,1.95-.76s1.62,.43,1.97,.78c.15,.16,.32,.39,.46,.68,.13-.24,.29-.43,.43-.57,.35-.35,.97-.76,1.97-.76h3.23c1.43,0,2.59,.39,3.44,1.15,.89,.81,1.36,1.94,1.36,3.26,0,1.02-.28,1.91-.82,2.64-.08,.11-.16,.21-.25,.31,.01,.02,.61,1.09,.61,1.09,.04,.05,.07,.11,.1,.16,.26,.49,.39,1,.37,1.52-.03,.67-.32,1.27-.82,1.68-.46,.38-1.04,.58-1.74,.58s-1.22-.15-1.67-.45c-.39-.24-.76-.65-1.05-1.19l-.16-.29c-.14,.56-.41,.94-.66,1.18-.5,.5-1.17,.76-1.96,.76-.99,0-1.6-.41-1.95-.76s-.75-.96-.76-1.94c-.24,.48-.54,.9-.91,1.27-.98,.96-2.36,1.45-4.12,1.45Zm-11.03-7.53c-.32,0-.39,.09-.46,.17-.16,.2-.24,.57-.24,1.07,0,.35,.04,.83,.25,1.1,.05,.06,.13,.16,.45,.16s.38-.1,.44-.17c.17-.22,.26-.59,.26-1.09s-.09-.88-.25-1.07c-.06-.07-.13-.17-.46-.17Z" fill="#c6ea84"/><path d="M90.07,33.54c.94,0,1.76,.2,2.47,.59,.71,.39,1.26,.95,1.65,1.66,.39,.72,.59,1.57,.59,2.52s-.2,1.79-.59,2.51-.94,1.28-1.65,1.68-1.53,.6-2.47,.6-1.76-.2-2.47-.6c-.71-.4-1.26-.96-1.65-1.68-.39-.72-.59-1.54-.59-2.51s.2-1.81,.59-2.52c.39-.71,.94-1.27,1.65-1.66,.71-.39,1.53-.59,2.47-.59m.01,7.53c.68,0,1.22-.24,1.61-.73,.39-.49,.59-1.17,.59-2.03s-.19-1.54-.58-2.02c-.39-.48-.92-.72-1.62-.72s-1.23,.24-1.62,.72c-.39,.48-.58,1.15-.58,2.02s.19,1.54,.58,2.03c.39,.49,.94,.73,1.62,.73m13.97-7.52c.38,0,.68,.11,.88,.32,.2,.21,.3,.52,.3,.91h0v4.23c0,1.36-.35,2.38-1.05,3.06-.7,.69-1.72,1.03-3.07,1.03s-2.39-.35-3.1-1.03c-.71-.68-1.07-1.7-1.07-3.06v-4.22c0-.4,.11-.7,.32-.91,.21-.21,.51-.32,.89-.32s.68,.11,.89,.32c.21,.21,.32,.52,.32,.91v4.25c0,.68,.15,1.19,.45,1.53,.3,.34,.74,.51,1.3,.51s.99-.17,1.29-.51c.3-.35,.45-.85,.45-1.53v-4.26c0-.4,.1-.7,.31-.91,.21-.21,.51-.32,.89-.32m8.05,.13c1.05,0,1.87,.26,2.44,.77,.57,.52,.86,1.23,.86,2.14,0,.69-.17,1.27-.52,1.74s-.85,.8-1.51,.98c.49,.13,.88,.47,1.18,1.01l.66,1.18h0c.14,.26,.2,.51,.19,.75s-.1,.44-.28,.59-.43,.23-.78,.23-.63-.06-.84-.2c-.21-.13-.4-.35-.57-.66l-1.2-2.2c-.1-.19-.24-.33-.4-.4-.16-.07-.35-.11-.56-.11h-.72v2.35c0,.4-.1,.7-.31,.91s-.52,.32-.9,.32-.68-.11-.89-.32-.32-.52-.32-.91v-6.94c0-.4,.11-.7,.32-.91,.21-.21,.52-.32,.91-.32h3.23m-2.04,4.1h1.6c.95,.01,1.43-.37,1.43-1.12s-.47-1.12-1.43-1.12h-1.6v2.24m-19.99-7.24c-1.44,0-2.75,.32-3.91,.96-1.21,.66-2.16,1.62-2.84,2.85-.64,1.16-.96,2.49-.96,3.96s.32,2.77,.95,3.94c.66,1.22,1.61,2.19,2.82,2.86,1.16,.65,2.49,.99,3.94,.99s2.78-.33,3.94-.99c.6-.34,1.13-.74,1.6-1.21,.11,.12,.22,.24,.32,.34,.89,.85,2.51,1.86,5.18,1.86,1.84,0,3.38-.46,4.58-1.38,.05,.05,.1,.11,.15,.16,.77,.77,1.84,1.2,3.01,1.2,1.02,0,1.97-.32,2.71-.92,.11,.08,.22,.16,.33,.23,.69,.45,1.52,.68,2.46,.68,1.31,0,2.19-.5,2.7-.93,.83-.69,1.31-1.67,1.36-2.77,.03-.79-.15-1.56-.55-2.3-.04-.08-.09-.16-.14-.24l-.11-.2c.53-.89,.79-1.91,.79-3.05,0-2.21-1-3.59-1.84-4.36-.8-.72-2.21-1.55-4.46-1.55h-3.23c-.85,0-1.65,.22-2.32,.64-.7-.5-1.56-.77-2.5-.77-1.14,0-2.19,.41-2.96,1.14-.77-.73-1.81-1.13-2.94-1.13s-2.24,.43-3.01,1.2c-.09,.09-.18,.19-.28,.31-.28-.21-.57-.4-.88-.57-1.16-.64-2.48-.96-3.91-.96h0Z"/></g></g><g id="d"><g><path d="M60.66,44.6c-1.19,0-2.27-.27-3.21-.79-.96-.54-1.71-1.3-2.23-2.27-.04-.07-.08-.15-.11-.22-.41,1.94-1.9,3.09-4.23,3.23l-.47,.03s-.16,0-.19,0c-.91,0-1.48-.4-1.8-.74-.45-.48-.69-1.1-.69-1.79,0-.55,.16-1.05,.48-1.5,.37-.51,.93-.82,1.59-.9v-4.85c0-1,.41-1.62,.76-1.97,.34-.35,.96-.76,1.95-.76s1.61,.41,1.95,.76c.35,.35,.76,.97,.76,1.97v.29h0c.53-.98,1.29-1.74,2.24-2.26,.94-.51,2.01-.78,3.19-.78s2.26,.26,3.19,.78c.96,.52,1.71,1.28,2.24,2.25h0v-.27c0-1.01,.41-1.63,.76-1.98,.34-.35,.96-.76,1.95-.76s1.61,.41,1.95,.76c.16,.16,.34,.39,.48,.68,.11-.23,.25-.45,.42-.64,.33-.37,.93-.8,1.87-.8,.61,0,1.13,.15,1.54,.45,.28,.21,.55,.48,.82,.8l1.13,1.41v-.02c0-1.57,1.05-2.63,2.62-2.63,.99,0,1.59,.42,1.93,.77,.3,.3,.69,.9,.69,1.86v7.27c0,.72-.22,1.33-.65,1.81-.46,.51-1.11,.79-1.82,.79-.59,0-1.1-.13-1.51-.4-.03-.02-.06-.04-.09-.06-.12-.09-.55-.42-.84-.81l-1.11-1.38h0c0,1.59-1.05,2.65-2.62,2.65-1.12,0-1.98-.54-2.38-1.42-.14,.29-.31,.5-.47,.66-.35,.35-.97,.76-1.96,.76s-1.6-.41-1.95-.76c-.35-.35-.76-.97-.76-1.98v-.3h0c-.52,.97-1.28,1.74-2.23,2.27-.93,.53-2.01,.79-3.21,.79Zm.01-7.53c-.32,0-.4,.09-.46,.17-.16,.2-.24,.57-.24,1.07,0,.35,.04,.83,.25,1.1,.05,.06,.13,.16,.45,.16s.38-.1,.44-.16c.17-.22,.26-.6,.26-1.1s-.09-.88-.24-1.07c-.06-.08-.14-.17-.46-.17Z" fill="#ffc679"/><path d="M60.66,33.54c.94,0,1.76,.2,2.47,.59,.71,.39,1.26,.95,1.65,1.66,.39,.72,.59,1.57,.59,2.52s-.2,1.79-.59,2.51-.94,1.28-1.65,1.68-1.53,.6-2.47,.6-1.76-.2-2.47-.6c-.71-.4-1.26-.96-1.65-1.68s-.59-1.54-.59-2.51,.2-1.81,.59-2.52c.39-.71,.94-1.27,1.65-1.66,.71-.39,1.53-.59,2.47-.59m.01,7.53c.68,0,1.22-.24,1.61-.73s.59-1.17,.59-2.03-.19-1.54-.58-2.02c-.39-.48-.92-.72-1.62-.72s-1.23,.24-1.62,.72c-.39,.48-.58,1.15-.58,2.02s.19,1.54,.58,2.03c.39,.49,.94,.73,1.62,.73m12.87-7.51c.28,0,.5,.05,.65,.16,.15,.11,.33,.28,.53,.53l3.8,4.75v-4.3c0-.75,.37-1.13,1.12-1.13,.37,0,.65,.1,.84,.3,.19,.19,.28,.47,.28,.83v7.27c0,.34-.08,.6-.26,.8-.18,.2-.42,.3-.71,.3s-.53-.05-.7-.16c0,0-.36-.27-.55-.52l-3.8-4.75v4.29c0,.76-.37,1.14-1.12,1.14s-1.13-.38-1.13-1.14v-7.17c0-.39,.1-.68,.29-.89,.19-.21,.44-.31,.76-.31m-4.73,0c.38,0,.68,.11,.89,.32,.21,.21,.32,.52,.32,.92v7.03c0,.4-.1,.71-.31,.92-.21,.21-.51,.32-.9,.32s-.68-.11-.89-.32c-.21-.21-.32-.52-.32-.92v-7.03c0-.4,.11-.71,.32-.92,.21-.21,.51-.32,.89-.32m-16.3,0c.38,0,.68,.11,.89,.32,.21,.21,.32,.52,.32,.91v5.37c0,1.81-.98,2.77-2.93,2.88h0l-.47,.03s-.06,0-.09,0c-.3,0-.54-.09-.72-.27-.19-.2-.28-.45-.28-.76,0-.24,.07-.44,.2-.62s.33-.27,.59-.29l.37-.03c.32-.02,.56-.09,.7-.23,.15-.14,.22-.36,.22-.68v-5.4c0-.4,.11-.7,.32-.91,.21-.21,.51-.32,.89-.32m8.15-3.02c-1.44,0-2.75,.32-3.91,.96-.33,.18-.63,.38-.92,.6-.09-.12-.2-.23-.3-.34-.77-.77-1.84-1.2-3.01-1.2s-2.24,.43-3.01,1.2c-.55,.55-1.2,1.52-1.2,3.03v3.75c-.52,.26-.96,.64-1.31,1.12-.5,.7-.77,1.52-.77,2.38,0,1.09,.38,2.07,1.1,2.83,.74,.78,1.77,1.21,2.89,1.21,.09,0,.17,0,.26,0l.44-.03h.04c1.88-.11,3.39-.79,4.39-1.92,.41,.38,.87,.71,1.37,1,1.16,.65,2.49,.99,3.94,.99s2.78-.33,3.94-.99c.31-.18,.61-.37,.89-.59,.1,.12,.2,.24,.31,.35,.77,.77,1.84,1.2,3.01,1.2,.89,0,1.73-.25,2.41-.7,.66,.45,1.48,.7,2.4,.7,1.25,0,2.32-.48,3.06-1.28,.25,.24,.49,.43,.61,.52,.06,.04,.11,.08,.17,.12,.66,.43,1.44,.64,2.33,.64,1.15,0,2.19-.46,2.94-1.29,.47-.52,1.03-1.43,1.03-2.81v-7.27c0-1.46-.61-2.39-1.13-2.92-.75-.78-1.81-1.21-2.99-1.21-1.25,0-2.32,.47-3.05,1.27-.2-.2-.41-.38-.62-.54-.67-.49-1.49-.74-2.42-.74-.86,0-1.65,.25-2.32,.71-.69-.46-1.52-.71-2.41-.71-1.17,0-2.24,.43-3.01,1.2-.11,.11-.21,.22-.3,.34-.29-.22-.6-.42-.92-.6-1.16-.64-2.48-.96-3.91-.96h0Z"/></g></g><g id="e"><rect x="11.13" y="41.07" width="20.72" height="11.12"/><g><path d="M12.48,59.74c-.15,0-.29-.02-.44-.06-3.36-1.02-6.5-2.6-9.33-4.69-.34-.25-.56-.64-.6-1.06-.72-7.55,1.06-14.38,5.44-20.88,.15-.23,.37-.41,.62-.53,2.43-1.1,4.99-1.89,7.61-2.34,.08-.01,.17-.02,.25-.02,.53,0,1.03,.28,1.3,.75,.18,.31,.35,.64,.53,1,1.03-.11,2.08-.17,3.11-.17s2.08,.06,3.12,.17c.25-.5,.47-.95,.47-.95,.26-.51,.78-.82,1.33-.82,.08,0,.17,0,.26,.02,2.66,.46,5.22,1.25,7.6,2.35,.25,.11,.46,.29,.61,.52,4.35,6.37,6.19,13.4,5.46,20.9-.04,.42-.26,.81-.6,1.06-2.84,2.1-5.98,3.67-9.33,4.68-.14,.04-.29,.06-.43,.06-.46,0-.91-.22-1.2-.6-.71-.94-1.36-1.99-1.95-3.11-1.75,.43-3.55,.65-5.34,.65s-3.6-.22-5.36-.65c-.57,1.09-1.22,2.14-1.95,3.12-.29,.39-.74,.61-1.2,.61Zm14.32-15.48c-.91,0-1.65,.91-1.65,2.02s.76,2,1.65,2,1.63-.89,1.65-2.02c0-.59-.2-1.15-.58-1.53-.21-.21-.57-.47-1.07-.47Zm-11.65,0c-.91,0-1.65,.91-1.65,2.02s.76,2,1.66,2,1.63-.89,1.65-2.02c0-.58-.2-1.14-.58-1.52-.21-.22-.57-.47-1.08-.47Z" fill="#ffa7a0"/><path d="M25.91,31.64c2.5,.43,4.93,1.17,7.23,2.23,3.97,5.81,5.94,12.35,5.21,19.91-2.68,1.98-5.68,3.49-8.87,4.45-.72-.96-1.35-1.99-1.9-3.06,1.04-.39,2.04-.87,3-1.43-.24-.17-.49-.35-.73-.55-2.81,1.32-5.83,1.98-8.86,1.98s-6.06-.66-8.87-1.98c-.23,.18-.48,.37-.73,.55,.95,.56,1.95,1.04,2.99,1.43-.55,1.08-1.18,2.1-1.9,3.07-3.19-.97-6.19-2.48-8.87-4.46-.62-6.51,.62-13.12,5.19-19.9,2.31-1.05,4.74-1.8,7.24-2.23,.35,.61,.65,1.24,.93,1.88,1.33-.2,2.67-.3,4.01-.3s2.68,.1,4.01,.3c.28-.64,.92-1.89,.92-1.89m.89,18.14c1.76,0,3.12-1.57,3.15-3.5,.03-1.94-1.38-3.52-3.15-3.52s-3.15,1.59-3.15,3.52,1.42,3.5,3.15,3.5m-11.64,0c1.76,0,3.12-1.57,3.15-3.5,.03-1.94-1.39-3.52-3.16-3.52s-3.15,1.59-3.15,3.52,1.43,3.5,3.16,3.5m10.75-21.14c-1.11,0-2.15,.62-2.67,1.63l-.02,.04c-.75-.06-1.49-.08-2.24-.08s-1.5,.03-2.25,.08c-.03-.05-.06-.11-.09-.16-.54-.94-1.54-1.51-2.6-1.51-.17,0-.34,.01-.51,.04-2.74,.47-5.43,1.3-7.97,2.46-.5,.23-.94,.59-1.25,1.05C1.73,39-.13,46.15,.63,54.06c.08,.85,.52,1.62,1.2,2.13,2.97,2.19,6.26,3.85,9.78,4.92,.29,.09,.58,.13,.87,.13,.93,0,1.83-.44,2.41-1.21,.55-.73,1.05-1.51,1.52-2.31,1.51,.3,3.05,.45,4.58,.45s3.06-.15,4.57-.45c.47,.82,.98,1.59,1.52,2.31,.58,.77,1.47,1.2,2.4,1.2,.29,0,.58-.04,.86-.13,3.52-1.06,6.81-2.71,9.79-4.91,.68-.51,1.12-1.28,1.2-2.12,.76-7.86-1.17-15.23-5.72-21.89-.31-.45-.73-.8-1.22-1.03-2.5-1.15-5.19-1.98-7.98-2.46-.17-.03-.34-.04-.51-.04h0Zm-10.75,18.1c-.07-.07-.16-.23-.16-.46,0-.26,.1-.43,.16-.5,.06,.06,.15,.21,.15,.45,0,.26-.09,.43-.15,.51h0Zm11.64,0c-.07-.08-.15-.23-.15-.46,0-.26,.09-.42,.16-.5,.06,.06,.15,.21,.14,.45,0,.25-.09,.42-.15,.51h0Z"/></g><g transform="matrix(1, 0, 0, 1, 0, 0)"><path id="f" d="M89.78,4.86s3.26,2.87,2.83,3.12c-.87,.62-1.74,1.27-2.5,1.97-.54,.49-1.9,2.01-2.45,1.93-.49-.04-1.69-1.23-2.01-1.85-.33-.62-.6-1.76-.16-1.93,.43-.16,4.29-3.24,4.29-3.24Z" fill="#c6ea84"/></g><g transform="matrix(1, 0, 0, 1, 0, 0)"><path id="g" d="M6.08,1.59s1.68,3.23,1.25,3.31c-.92,.24-1.84,.52-2.71,.84-.6,.24-2.28,1.04-2.66,.88s-.98-1.48-1.03-2.08c-.05-.6,.11-1.6,.49-1.6S6.08,1.59,6.08,1.59Z" fill="#abfdd7"/></g><g transform="matrix(1, 0, 0, 1, 0, 0)"><path id="h" d="M120.56,71.88l2.9-2.57s1.1,2.6,2.45,3.13c.9,.35,1.7,.77,2.45,1.27,0,0-.9,1.69-1.45,1.72-1.35,0-2.65-.35-3.7-.95-1.35-.81-2.65-2.6-2.65-2.6Z" fill="#abfdd7"/></g><g transform="matrix(1, 0, 0, 1, 0, 0)"><path id="i" d="M21.58,84.41l-.03-3.66s2.05,1.24,3.04,.78c.62-.28,1.27-.5,1.95-.59,0,0,.53,1.8,.25,2.14-.25,.34-1.27,1.4-2.42,1.61s-2.79-.28-2.79-.28Z" fill="#abfdd7"/></g><g transform="matrix(1, 0, 0, 1, 0, 0)"><path id="j" d="M155.46,64.38v-4.14s2.87,1.4,4.23,.88c.86-.35,1.79-.53,2.72-.7,0,0,.72,2.04,.36,2.39-.36,.41-1.79,1.58-3.37,1.81-1.65,.29-3.94-.23-3.94-.23Z" fill="#ffc679"/></g><g transform="matrix(1, 0, 0, 1, 0, 0)"><path id="k" d="M5.79,68.38l1.56,3.24s-2.65-.08-3.46,.82c-.5,.58-1.13,1.05-1.75,1.52,0,0-1.3-1.34-1.16-1.74,.11-.45,.73-1.87,1.81-2.61,1.11-.81,3-1.22,3-1.22Z" fill="#c6ea84"/></g><g transform="matrix(1, 0, 0, 1, 0, 0)"><path id="l" d="M134.28,46.82l-.03-3.66s2.05,1.24,3.04,.78c.62-.28,1.27-.5,1.95-.59,0,0,.53,1.8,.25,2.14-.25,.34-1.27,1.4-2.42,1.61-1.12,.19-2.79-.28-2.79-.28Z" fill="#abfdd7"/></g><g transform="matrix(1, 0, 0, 1, 0, 0)"><path id="m" d="M94.16,78.62l-3.84,2.7s-.8-3.27-2.32-4.05c-.94-.52-1.81-1.14-2.61-1.82,0,0,1.38-1.87,1.96-1.87,1.59,.21,3.04,.78,4.13,1.61,1.45,1.14,2.68,3.43,2.68,3.43Z" fill="#ffc679"/></g><g transform="matrix(1, 0, 0, 1, 0, 0)"><path id="n" d="M42.05,14.42l-2.37-2.35s3.27-.95,4.15-2.06c.54-.69,1.2-1.4,1.96-2.04,0,0,1.74,.74,1.66,1.16-.06,.45-.64,1.96-1.89,3.08-1.14,1.11-3.5,2.21-3.5,2.21Z" fill="#ffa7a0"/></g><g transform="matrix(1, 0, 0, 1, 0, 0)"><path id="o" d="M150.52,22.72l-.65-2.73s1.77,.37,2.42-.22c.4-.37,.87-.71,1.36-.96,0,0,.68,1.21,.56,1.52s-.71,1.36-1.55,1.83c-.81,.47-2.14,.56-2.14,.56Z" fill="#ffa7a0"/></g><g transform="matrix(1, 0, 0, 1, 0, 0)"><path id="p" d="M185.54,33.07l-.65-2.73s1.77,.37,2.42-.22c.4-.37,.87-.71,1.36-.96,0,0,.68,1.21,.56,1.52s-.71,1.36-1.55,1.83-2.14,.56-2.14,.56Z" fill="#c6ea84"/></g><g transform="matrix(1, 0, 0, 1, 0, 0)"><path id="q" d="M120.88,7.61s4.18-4.29,6.2-4.55c2.02-.21,6.29,.21,6.63,1.94,.34,1.73-2.54,5.02-3.75,4.55-1.21-.47-4.18-3.66-6.03-3.04s-3.06,1.1-3.06,1.1Z" fill="#ffc679"/></g><g transform="matrix(1, 0, 0, 1, 0, 0)"><path id="r" d="M56.82,73.75s-2.61,3.13-4.03,3.54c-1.43,.43-4.5,.78-4.87-.19s1.43-3.29,2.29-3.19c.9,.09,3.26,1.52,4.53,.9s2.08-1.05,2.08-1.05Z" fill="#c6ea84"/></g></g></svg>