<?xml version="1.0" encoding="UTF-8"?><svg id="a" xmlns="http://www.w3.org/2000/svg" viewBox="0 0 32 32"><path d="M16.73,5.74l3.09,5.68c.11,.2,.31,.35,.54,.39l6.36,1.18c.6,.11,.84,.84,.42,1.29l-4.45,4.69c-.16,.17-.23,.4-.2,.63l.84,6.41c.08,.6-.54,1.06-1.09,.79l-5.84-2.78c-.21-.1-.45-.1-.66,0l-5.84,2.78c-.55,.26-1.17-.19-1.09-.79l.84-6.41c.03-.23-.04-.46-.2-.63l-4.45-4.69c-.42-.44-.18-1.17,.42-1.29l6.36-1.18c.23-.04,.42-.19,.54-.39l3.09-5.68c.29-.54,1.06-.54,1.35,0Z" fill="#e0ab6c"/><path d="M16.73,4l3.09,5.68c.11,.2,.31,.35,.54,.39l6.36,1.18c.6,.11,.88,2.34,.46,2.78l-4.76,3.45c-.16,.17-.23,.4-.2,.63l1.11,6.16c.08,.6-.54,1.06-1.09,.79l-5.84-2.78c-.21-.1-.45-.1-.66,0l-5.84,2.78c-.55,.26-1.17-.19-1.09-.79l1.05-5.83c.03-.23-.04-.46-.2-.63l-4.71-3.9c-.42-.44-.14-2.56,.46-2.67l6.36-1.18c.23-.04,.42-.19,.54-.39l3.09-5.68c.29-.54,1.06-.54,1.35,0Z" fill="#ffc679"/><path d="M16.05,5.34c.27,0,.53,.13,.68,.4l3.09,5.68c.11,.2,.31,.35,.54,.39l6.36,1.18c.6,.11,.84,.84,.42,1.29l-4.45,4.69c-.16,.17-.23,.4-.2,.63l.84,6.41c.06,.48-.32,.87-.76,.87-.11,0-.22-.02-.33-.08l-5.84-2.78c-.1-.05-.22-.07-.33-.07s-.23,.02-.33,.07l-5.84,2.78c-.11,.05-.22,.08-.33,.08-.44,0-.83-.39-.76-.87l.84-6.41c.03-.23-.04-.46-.2-.63l-4.45-4.69c-.42-.44-.18-1.17,.42-1.29l6.36-1.18c.23-.04,.42-.19,.54-.39l3.09-5.68c.15-.27,.41-.4,.68-.4m0-1.92c-.98,0-1.89,.54-2.36,1.4l-2.83,5.2-5.82,1.08c-.97,.18-1.76,.87-2.06,1.81-.3,.94-.07,1.96,.6,2.68l4.07,4.3-.77,5.87c-.1,.77,.13,1.54,.64,2.12,.51,.58,1.25,.92,2.02,.92,.4,0,.79-.09,1.15-.26l5.35-2.55,5.35,2.55c.37,.17,.75,.26,1.15,.26,.77,0,1.51-.33,2.02-.92,.51-.58,.74-1.35,.64-2.12l-.77-5.87,4.07-4.3c.68-.71,.91-1.74,.6-2.68s-1.09-1.63-2.06-1.81l-5.82-1.08-2.83-5.2c-.47-.86-1.37-1.4-2.36-1.4h0Z"/></svg>