<?xml version="1.0" encoding="UTF-8"?><svg xmlns="http://www.w3.org/2000/svg" viewBox="0 0 32 32"><g id="a"><g><circle cx="16.05" cy="16.04" r="14.17" fill="#d88d6c"/><path d="M28.11,14.65c0,6.49-4.23,11.75-12.06,11.75S4,21.14,4,14.65,8.22,2.89,16.05,2.89s12.06,5.26,12.06,11.75Z" fill="#ffa77b" fill-rule="evenodd"/><path d="M16.05,1.88C8.22,1.88,1.88,8.22,1.88,16.04s6.34,14.17,14.17,14.17,14.17-6.34,14.17-14.17S23.87,1.88,16.05,1.88Zm9.32,6.46s.02,.02,.02,.02h0c1.53,1.86,2.47,4.14,2.7,6.54,.02,.17-.1,.31-.27,.33-.02,0-.04,0-.06,0-1.24-.17-5.22-.91-7.03-2.19-.13-.1-.15-.29-.05-.42,0-.01,.02-.02,.03-.03l4.25-4.25c.12-.12,.31-.12,.42,0Zm-8.24-4.32s.05,0,.07,0c2.4,.22,4.67,1.16,6.53,2.69,.13,.11,.14,.3,.03,.43l-.02,.02-4.25,4.26c-.12,.12-.31,.12-.42,0,0,0-.02-.02-.02-.03-1.25-1.78-1.97-5.79-2.17-7.02-.02-.16,.09-.32,.25-.34Zm-8.76,2.7c1.83-1.51,4.06-2.44,6.41-2.69,.01,0,.02,0,.03,0,.17,0,.3,.14,.29,.31-.08,3.81,2.22,7.45,2.81,8.32,.08,.12,.06,.27-.04,.37l-1.62,1.62c-.12,.11-.3,.11-.42,0l-7.49-7.49h-.02c-.11-.14-.09-.34,.03-.45Zm-1.66,1.66h0l.02-.02c.12-.12,.31-.12,.43,0l7.49,7.49c.11,.12,.11,.3,0,.42l-1.6,1.6c-.11,.11-.28,.12-.4,.02-2.3-1.96-5.27-2.96-8.29-2.78-.02,0-.03,0-.05,0-.17-.01-.29-.16-.28-.32,.24-2.35,1.18-4.58,2.68-6.41Zm.02,15.37l-.02-.02c-1.54-1.87-2.49-4.17-2.7-6.59-.02-.17,.11-.31,.27-.33h.02c2.55-.09,5.05,.7,7.09,2.23,.13,.11,.15,.3,.04,.44l-.02,.02-4.25,4.25c-.12,.12-.31,.12-.43,0Zm8.25,4.33s-.03,0-.05,0c-2.4-.22-4.69-1.16-6.55-2.69-.13-.1-.15-.29-.04-.42,0,0,.01-.02,.02-.02l4.23-4.23c.12-.12,.31-.12,.43,0,.01,.01,.03,.03,.04,.04h0c1.23,2.15,1.98,4.53,2.2,7,.01,.17-.11,.31-.28,.32Zm8.75-2.69c-1.84,1.51-4.09,2.45-6.46,2.68-.16,.01-.31-.1-.33-.27-.17-1.27-1.1-6.23-2.71-8.33h0c-.09-.11-.08-.27,.02-.38l1.59-1.64h0c.12-.12,.3-.12,.42,0l7.49,7.49,.02,.02c.11,.13,.09,.32-.03,.43Zm1.66-1.66l-.02,.02c-.12,.12-.31,.12-.43,0l-7.49-7.49c-.11-.12-.11-.3,0-.42l1.61-1.62c.1-.11,.26-.12,.38-.03,2.39,1.81,5.31,2.79,8.31,2.79,.01,0,.02,0,.04,0,.17,.01,.29,.16,.27,.32-.24,2.36-1.18,4.59-2.68,6.42Z" fill-rule="evenodd"/></g></g><g id="b"><path id="c" d="M28.23,10.29c-1.37-3.16-3.91-5.68-7.09-7.04-1.61-.69-3.35-1.04-5.11-1.03-1.75-.01-3.49,.34-5.09,1.03-3.18,1.36-5.71,3.88-7.08,7.04-.69,1.61-1.05,3.34-1.03,5.08-.01,1.75,.34,3.48,1.04,5.08,1.37,3.15,3.9,5.67,7.07,7.03,1.61,.69,3.35,1.05,5.11,1.03,1.76,.01,3.5-.34,5.11-1.03,1.57-.68,3-1.65,4.21-2.85,1.22-1.2,2.19-2.62,2.87-4.19,.69-1.61,1.04-3.34,1.03-5.08,.01-1.75-.34-3.48-1.04-5.08" fill="#8eceae"/><path id="d" d="M27.36,9.5c-1.3-2.99-3.68-5.38-6.68-6.67-1.52-.65-3.16-.99-4.81-.98-1.65,0-3.28,.32-4.8,.98-3,1.29-5.38,3.67-6.67,6.67-.65,1.52-.99,3.16-.98,4.81-.01,1.66,.32,3.29,.98,4.81,1.29,2.99,3.68,5.37,6.67,6.66,1.52,.66,3.16,.99,4.81,.98,1.66,.01,3.29-.32,4.81-.98,1.48-.64,2.83-1.56,3.97-2.7,1.14-1.14,2.06-2.48,2.7-3.96,.65-1.52,.98-3.16,.97-4.81,.01-1.65-.32-3.29-.98-4.81" fill="#abfdd7"/><path d="M16.05,1.88C8.22,1.88,1.88,8.22,1.88,16.04s6.34,14.17,14.17,14.17,14.17-6.34,14.17-14.17S23.87,1.88,16.05,1.88Zm8.79,22.94c-1.14,1.14-2.49,2.06-3.97,2.7-1.52,.66-3.16,.99-4.81,.98-1.65,.01-3.29-.32-4.81-.98-2.99-1.29-5.37-3.67-6.67-6.66-.66-1.52-.99-3.16-.98-4.81-.01-1.65,.32-3.29,.98-4.81,1.29-3,3.67-5.38,6.67-6.67,1.52-.65,3.15-.98,4.8-.98,1.65-.01,3.29,.32,4.81,.98,2.99,1.29,5.38,3.68,6.68,6.67h0c.66,1.51,.99,3.15,.98,4.81,.01,1.65-.32,3.29-.97,4.81-.64,1.48-1.56,2.83-2.7,3.96Z" fill-rule="evenodd"/><path d="M16.88,25.15c-.24-.18-.42-.44-.56-.76-.14-.33-.23-.7-.29-1.13-.06-.43-.1-.88-.12-1.37-.02-.49-.03-.98-.03-1.47s0-.86-.03-1.1c-.02-.24-.07-.44-.15-.61-.16-.27-.44-.4-.85-.37-.32,.04-.72,.1-1.22,.18-.5,.08-1,.12-1.51,.12-.32,0-.68-.13-1.09-.4-.41-.27-.8-.6-1.18-1.01s-.69-.83-.93-1.27c-.25-.44-.37-.83-.37-1.17,0-.29,.11-.68,.34-1.18s.56-1,.99-1.52,.95-.95,1.55-1.31c.6-.35,1.28-.53,2.04-.53,.69,0,1.34,.05,1.95,.15s1.16,.2,1.64,.3,.88,.15,1.18,.15c.42,0,.78-.07,1.08-.21,.3-.14,.46-.28,.46-.43,0-.13-.19-.27-.57-.44-.38-.16-.85-.33-1.39-.48-.54-.16-1.07-.29-1.58-.39s-.89-.15-1.13-.15c-.2,0-.47,.06-.82,.18-.35,.12-.76,.3-1.24,.53-.55,.27-1.01,.35-1.38,.24s-.65-.33-.82-.65c-.17-.32-.21-.66-.12-1.03s.33-.66,.73-.88c.78-.49,1.39-.86,1.82-1.1,.43-.24,.85-.36,1.25-.36,.2,0,.43,.02,.69,.05,.26,.04,.53,.09,.82,.15,.05-.47,.13-.82,.24-1.05s.32-.43,.63-.59c.3-.17,.77-.41,1.41-.72,.64,.16,1.35,.37,2.11,.64s1.51,.61,2.24,1.02c.73,.41,1.37,.9,1.92,1.46,.67,.66,1.2,1.24,1.59,1.73s.69,.95,.9,1.36c.21,.42,.38,.84,.52,1.27,.14,.43,.3,.91,.48,1.44-.47,.39-.96,.73-1.46,1.03-.5,.3-.95,.53-1.34,.7s-.7,.26-.91,.26c-.25,0-.48-.07-.7-.2-.22-.14-.61-.39-1.15-.75-.08-.05-.14-.05-.18,0-.04,.06-.02,.12,.06,.17,.57,.37,1.02,.76,1.36,1.17,.33,.4,.5,.86,.5,1.37,0,.57-.22,1.24-.65,1.99s-.89,1.54-1.38,2.36c-.25,.41-.54,.89-.87,1.44s-.69,1.09-1.08,1.62-.8,.95-1.21,1.29c-.42,.34-.84,.5-1.25,.5-.38,0-.69-.09-.93-.27Zm6.22-16.47c.16-.15,.24-.34,.24-.57,0-.17-.09-.35-.29-.53-.19-.18-.42-.34-.68-.46-.26-.13-.5-.19-.7-.19-.25,0-.47,.06-.64,.18-.17,.12-.26,.29-.26,.5,0,.19,.1,.39,.31,.59s.45,.37,.73,.5c.28,.14,.54,.2,.76,.2,.19,0,.37-.07,.53-.22Z"/></g></svg>