<?xml version="1.0" encoding="UTF-8"?><svg id="a" xmlns="http://www.w3.org/2000/svg" viewBox="0 0 32 32"><path d="M27.48,24.39h-.43c.05-.14,.09-.28,.09-.44v-.13c0-.73-.59-1.31-1.31-1.31V11.66h1.21c.69,0,1.26-.57,1.26-1.26,0-.51-.31-.97-.78-1.16l-10.92-4.46c-.3-.12-.64-.12-.95,0L4.6,9.24c-.64,.26-.95,1-.69,1.64,.19,.47,.65,.78,1.16,.78h1.2v10.84c-.73,0-1.31,.59-1.31,1.31v.13c0,.16,.04,.3,.09,.44h-.43c-.74,0-1.34,.6-1.34,1.34v.08c0,.74,.6,1.34,1.34,1.34H27.48c.74,0,1.34-.6,1.34-1.34v-.08c0-.74-.6-1.34-1.34-1.34Zm-18.24-1.89V11.66h2.56v10.84h-2.56Zm5.53,0V11.66h2.57v10.84h-2.57Zm5.53,0V11.66h2.57v10.84h-2.57Z" fill="#c1a98f"/><path d="M27.48,23.04h-.43c.05-.14,.09-.28,.09-.44v-.13c0-.73-.59-1.31-1.31-1.31V10.31h1.21c.69,0,1.26-.57,1.26-1.26,0-.51-.31-.97-.78-1.16L16.59,3.43c-.3-.12-.64-.12-.95,0L4.6,7.89c-.64,.26-.95,1-.69,1.64,.19,.47,.65,.78,1.16,.78h1.2v10.84c-.73,0-1.31,.59-1.31,1.31v.13c0,.16,.04,.3,.09,.44h-.43c-.74,0-1.34,.6-1.34,1.34v.08c0,.74,.6,1.34,1.34,1.34H27.48c.74,0,1.34-.6,1.34-1.34v-.08c0-.74-.6-1.34-1.34-1.34Zm-18.24-1.89V10.31h2.56v10.84h-2.56Zm5.53,0V10.31h2.57v10.84h-2.57Zm5.53,0V10.31h2.57v10.84h-2.57Z" fill="#e2c7a6"/><path d="M16.12,4.69c.16,0,.32,.03,.47,.09l10.92,4.46c.47,.19,.78,.65,.78,1.16,0,.69-.56,1.26-1.26,1.26h-1.21v10.84c.73,0,1.31,.59,1.31,1.31v.13c0,.16-.04,.3-.09,.44h.43c.74,0,1.34,.6,1.34,1.34v.08c0,.74-.6,1.34-1.34,1.34H4.62c-.74,0-1.34-.6-1.34-1.34v-.08c0-.74,.6-1.34,1.34-1.34h.43c-.05-.14-.09-.28-.09-.44v-.13c0-.73,.59-1.31,1.31-1.31V11.66h-1.2c-.51,0-.97-.31-1.16-.78-.26-.64,.05-1.38,.69-1.64L15.64,4.78c.15-.06,.31-.09,.47-.09m4.18,17.81h2.57V11.66h-2.57v10.84m-5.53,0h2.57V11.66h-2.57v10.84m-5.53,0h2.56V11.66h-2.56v10.84M16.12,2.69c-.42,0-.83,.08-1.22,.24L3.85,7.38c-.81,.33-1.44,.95-1.78,1.76-.34,.8-.34,1.69-.01,2.49,.4,.98,1.22,1.68,2.21,1.93v7.62c-.51,.39-.91,.93-1.13,1.55-.33,.16-.63,.37-.89,.64-.63,.63-.98,1.47-.98,2.36v.08c0,1.84,1.5,3.34,3.34,3.34H27.48c1.84,0,3.34-1.5,3.34-3.33v-.09c0-1.31-.76-2.45-1.86-2.99-.22-.63-.62-1.17-1.13-1.56v-7.61c.57-.14,1.09-.44,1.51-.86,.61-.62,.95-1.44,.95-2.31,0-1.32-.8-2.51-2.02-3.01L17.35,2.93c-.4-.16-.81-.24-1.23-.24h0Z"/></svg>