<?xml version="1.0" encoding="UTF-8"?><svg id="a" xmlns="http://www.w3.org/2000/svg" viewBox="0 0 32 32"><path d="M6.33,27.87c-.16-.29-.07-.63,.28-1.05,.15-.2,.35-.44,.58-.73s.48-.61,.74-.98,.51-.74,.75-1.14c.07-.15,.09-.27,.06-.36s-.13-.18-.3-.28c-1.23-.69-2.25-1.49-3.07-2.41s-1.43-1.91-1.84-2.97-.61-2.15-.61-3.27c0-1.47,.34-2.84,1.01-4.12s1.6-2.41,2.79-3.38,2.56-1.73,4.13-2.27,3.26-.82,5.06-.82,3.48,.27,5.05,.82,2.95,1.3,4.13,2.27,2.12,2.09,2.79,3.38,1,2.66,1,4.12-.25,2.73-.76,3.87-1.21,2.12-2.11,2.97-1.95,1.55-3.15,2.1-2.5,.97-3.9,1.25-2.85,.42-4.34,.42h-.21c-.13,0-.25,.01-.37,.04s-.25,.09-.39,.18c-.58,.4-1.17,.76-1.78,1.1s-1.2,.63-1.77,.88-1.1,.44-1.59,.58-.89,.21-1.22,.21c-.48,0-.81-.14-.97-.43Z" fill="#d8ccb6"/><path d="M6.43,26.35c-.16-.29-.07-.63,.28-1.05,.15-.2,.35-.44,.58-.73s1.03,.01,1.27-.37c1.25-1.99,.15-2.29-.02-2.39-1.23-.69-2.25-1.49-3.07-2.41s-1.43-1.91-1.84-2.97-.61-2.15-.61-3.27c0-1.47,.34-2.84,1.01-4.12s1.6-2.41,2.79-3.38,2.56-1.73,4.13-2.27,3.26-.82,5.06-.82,3.48,.27,5.05,.82,2.95,1.3,4.13,2.27,2.12,2.09,2.79,3.38,1,2.66,1,4.12-.25,2.73-.76,3.87-1.21,2.12-2.11,2.97-1.95,1.55-3.15,2.1-2.5,.97-3.9,1.25c-1.4,.27-2.85,.42-4.34,.42h-.21c-.13,0-.25,.01-.37,.04s-.25,.09-.39,.18c-.58,.4-1.17,.76-1.78,1.1s-1.2,.63-1.77,.88-1.1,.44-1.59,.58-.89,.21-1.22,.21c-.48,0-.81-.14-.97-.43Z" fill="#fff0cc"/><path d="M15.92,4.11c1.8,0,3.48,.27,5.05,.82,1.57,.55,2.95,1.3,4.14,2.27s2.12,2.09,2.79,3.38c.67,1.28,1,2.66,1,4.12s-.25,2.73-.76,3.87c-.51,1.13-1.21,2.12-2.11,2.97-.9,.85-1.95,1.55-3.15,2.1-1.2,.56-2.5,.97-3.9,1.25-1.4,.27-2.85,.42-4.34,.42h-.21c-.13,0-.25,.01-.37,.04-.12,.03-.25,.09-.39,.18-.58,.4-1.17,.76-1.78,1.1-.61,.34-1.2,.63-1.77,.88s-1.1,.44-1.59,.58-.89,.21-1.22,.21c-.48,0-.81-.14-.97-.43-.16-.29-.07-.63,.28-1.05,.15-.2,.35-.44,.58-.73s.48-.61,.74-.98,.51-.74,.75-1.14c.07-.15,.09-.27,.06-.36-.03-.09-.13-.18-.3-.28-1.23-.69-2.25-1.49-3.07-2.41-.82-.92-1.43-1.91-1.84-2.97s-.61-2.15-.61-3.27c0-1.47,.34-2.84,1.01-4.12,.67-1.28,1.6-2.41,2.79-3.38,1.19-.97,2.56-1.73,4.13-2.27,1.57-.55,3.26-.82,5.06-.82m0-1.96c-2.02,0-3.94,.31-5.71,.93-1.78,.62-3.37,1.5-4.73,2.6-1.39,1.13-2.49,2.47-3.28,3.99-.82,1.56-1.23,3.25-1.23,5.04,0,1.36,.25,2.7,.74,3.98,.49,1.28,1.23,2.48,2.2,3.57,.64,.72,1.39,1.39,2.25,1.98-.17,.23-.33,.44-.49,.63-.23,.29-.43,.53-.59,.73-1.23,1.49-.73,2.77-.45,3.25,.3,.53,1.05,1.42,2.68,1.42,.52,0,1.1-.09,1.76-.28,.57-.16,1.18-.39,1.83-.67,.63-.27,1.28-.6,1.94-.96,.6-.33,1.19-.7,1.77-1.08h.03c1.62,0,3.21-.16,4.72-.46,1.55-.3,3.01-.77,4.34-1.39,1.38-.64,2.62-1.47,3.67-2.45,1.09-1.02,1.95-2.23,2.56-3.6,.62-1.38,.93-2.95,.93-4.67s-.41-3.47-1.22-5.03c-.79-1.52-1.9-2.86-3.29-3.99-1.36-1.11-2.95-1.98-4.73-2.6-1.77-.62-3.69-.93-5.7-.93h0Z"/></svg>