<?xml version="1.0" encoding="UTF-8"?><svg id="a" xmlns="http://www.w3.org/2000/svg" viewBox="0 0 40 40"><path d="M28.63,35.27c-.43,0-.84-.14-1.19-.39l-7.45-5.41-7.45,5.41c-.35,.26-.76,.39-1.19,.39-.65,0-1.27-.32-1.65-.85-.38-.53-.49-1.19-.28-1.82l2.84-8.75-7.45-5.41c-.71-.52-1.01-1.43-.74-2.27,.27-.84,1.05-1.4,1.93-1.4H15.22l2.84-8.75c.27-.84,1.05-1.4,1.93-1.4s1.66,.56,1.93,1.4l2.84,8.75h9.2c.88,0,1.66,.56,1.93,1.4s-.02,1.75-.74,2.27l-7.45,5.41,2.84,8.75c.2,.63,.1,1.29-.28,1.82-.38,.53-1,.85-1.65,.85Z" fill="#ffa41c"/><path d="M19.99,5.99c.26,0,.52,.15,.62,.45l3.01,9.25c.09,.27,.34,.45,.62,.45h9.73c.63,0,.9,.81,.38,1.18l-7.87,5.72c-.23,.17-.32,.46-.24,.73l3.01,9.25c.15,.46-.22,.86-.62,.86-.13,0-.26-.04-.38-.13l-7.87-5.72c-.11-.08-.25-.12-.38-.12s-.27,.04-.38,.12l-7.87,5.72c-.12,.09-.25,.13-.38,.13-.41,0-.77-.4-.62-.86l3.01-9.25c.09-.27,0-.56-.24-.73l-7.87-5.72c-.51-.37-.25-1.18,.38-1.18H15.74c.28,0,.53-.18,.62-.45l3.01-9.25c.1-.3,.36-.45,.62-.45m0-2.76c-1.48,0-2.78,.95-3.24,2.36l-2.53,7.8H6.02c-1.48,0-2.78,.95-3.24,2.36-.46,1.41,.04,2.94,1.24,3.81l6.64,4.82-2.53,7.8c-.34,1.04-.16,2.18,.48,3.05,.64,.88,1.68,1.41,2.77,1.41,.72,0,1.41-.23,2-.65l6.64-4.82,6.64,4.82c.59,.43,1.28,.65,2,.65,1.09,0,2.12-.53,2.77-1.41,.64-.88,.82-2.02,.48-3.05l-2.53-7.8,6.64-4.82c1.2-.87,1.7-2.4,1.24-3.81-.46-1.41-1.76-2.36-3.24-2.36h-8.2l-2.53-7.8c-.46-1.41-1.76-2.36-3.24-2.36h0Z" fill="#df7921"/></svg>