<?xml version="1.0" encoding="UTF-8"?><svg id="a" xmlns="http://www.w3.org/2000/svg" viewBox="0 0 32 32"><path d="M25.45,17.64h-1.16v7.86c0,.58-.46,1.04-1.04,1.04h-2.93c-.52,0-.87-.4-.87-.87v-4.99c0-.75-.64-1.39-1.39-1.39h-3.96c-.75,0-1.39,.64-1.39,1.39v4.99c0,.52-.4,.87-.87,.87h-2.99c-.58,0-1.04-.46-1.04-1.04v-7.86h-1.16c-1.21,0-1.85-1.5-.98-2.31L15.05,5.85c.52-.52,1.39-.52,1.91,0l9.42,9.42c.92,.87,.29,2.37-.92,2.37h0Z" fill="#d88c88"/><path d="M25.45,16.12h-1.16v7.86c0,.58-.46,1.04-1.04,1.04h-2.93c-.52,0-.87-.4-.87-.87v-4.99c0-.75-.64-1.39-1.39-1.39h-3.96c-.75,0-1.39,.64-1.39,1.39v4.99c0,.52-.4,.87-.87,.87h-2.99c-.58,0-1.04-.46-1.04-1.04v-7.86h-1.16c-1.21,0-1.85-1.5-.98-2.31L15.05,4.34c.52-.52,1.39-.52,1.91,0l9.42,9.42c.92,.87,.29,2.37-.92,2.37h0Z" fill="#ffa7a0"/><path d="M16,5.46c.35,0,.69,.13,.95,.39l9.42,9.42c.92,.87,.29,2.37-.92,2.37h-1.16v7.86c0,.58-.46,1.04-1.04,1.04h-2.93c-.52,0-.87-.4-.87-.87v-4.99c0-.75-.64-1.39-1.39-1.39h-3.96c-.75,0-1.39,.64-1.39,1.39v4.99c0,.52-.4,.87-.87,.87h-2.99c-.58,0-1.04-.46-1.04-1.04v-7.86h-1.16c-1.21,0-1.85-1.5-.98-2.31L15.05,5.85c.26-.26,.61-.39,.95-.39m0-2c-.9,0-1.74,.35-2.37,.98L4.29,13.9c-.96,.92-1.26,2.32-.76,3.59,.41,1.04,1.27,1.78,2.3,2.05v5.96c0,1.68,1.36,3.04,3.04,3.04h2.99c1.61,0,2.87-1.26,2.87-2.87v-4.37h2.74v4.37c0,1.61,1.26,2.87,2.87,2.87h2.93c1.68,0,3.04-1.36,3.04-3.04v-5.96c1.02-.26,1.88-1,2.28-2.03,.51-1.28,.19-2.71-.81-3.67L18.37,4.44c-.63-.63-1.47-.98-2.37-.98h0Z"/></svg>